<svg width="25" height="27" viewBox="0 0 25 27" fill="none" xmlns="http://www.w3.org/2000/svg" xmlns:xlink="http://www.w3.org/2000/svg">
<path d="M17.5095 7.50391C17.8897 8.22391 18.0898 9.0439 18.0898 9.9239C18.0898 12.8639 15.7085 15.2439 12.7668 15.2439C9.82519 15.2439 7.44385 12.8639 7.44385 9.9239C7.44385 9.0639 7.64396 8.24391 8.02418 7.50391" stroke="#FFD200" stroke-miterlimit="10" stroke-linecap="round" stroke-linejoin="round"/>
<path d="M17.5093 7.50389H8.00391L8.3441 1.86389L9.08451 1.66389C11.4458 1.00389 13.9272 0.983883 16.2886 1.62388L17.1891 1.86389L17.5093 7.50389Z" stroke="#FFD200" stroke-miterlimit="10" stroke-linecap="round" stroke-linejoin="round"/>
<path d="M10.5854 4.44385H14.7878" stroke="#FFD200" stroke-miterlimit="10" stroke-linecap="round" stroke-linejoin="round"/>
<path d="M12.6865 6.54388V2.34387" stroke="#FFD200" stroke-miterlimit="10" stroke-linecap="round" stroke-linejoin="round"/>
<path d="M1 21.5238C1 18.8638 6.28297 16.6838 12.7666 16.6838C19.2503 16.6838 24.4932 18.8438 24.4932 21.5238V25.8438H18.0296H7.50366H1V21.5238Z" stroke="#FFD200" stroke-miterlimit="10" stroke-linecap="round" stroke-linejoin="round"/>
<path d="M12.7468 25.8439L8.66455 17.0039" stroke="#FFD200" stroke-miterlimit="10" stroke-linecap="round" stroke-linejoin="round"/>
<path d="M12.7466 25.8439L16.8489 17.0039" stroke="#FFD200" stroke-miterlimit="10" stroke-linecap="round" stroke-linejoin="round"/>
</svg>
