<svg width="21" height="21" viewBox="0 0 21 21" fill="none" xmlns="http://www.w3.org/2000/svg">
<path d="M2.67962 2.10985L4.08237 0.707107C4.47289 0.316582 5.10606 0.316582 5.49658 0.707106L8.71395 3.92447C9.10447 4.315 9.10447 4.94816 8.71395 5.33869L6.52687 7.52576C6.1808 7.87183 6.095 8.40053 6.31388 8.83829C7.57918 11.3689 9.63112 13.4208 12.1617 14.6861C12.5995 14.905 13.1282 14.8192 13.4742 14.4731L15.6613 12.2861C16.0518 11.8955 16.685 11.8955 17.0755 12.2861L20.2929 15.5034C20.6834 15.8939 20.6834 16.5271 20.2929 16.9176L18.8902 18.3204C16.7788 20.4317 13.4362 20.6693 11.0475 18.8777L8.57594 17.0241C6.83241 15.7164 5.28359 14.1676 3.97594 12.4241L2.12226 9.95249C0.330722 7.56377 0.568273 4.2212 2.67962 2.10985Z" fill="black"/>
</svg>
