<svg width="59" height="52" viewBox="0 0 59 52" fill="none" xmlns="http://www.w3.org/2000/svg">
<path d="M0.0507812 3.16944C0.0507812 1.51258 1.39393 0.169434 3.05078 0.169434H54.4886C54.7648 0.169434 54.9886 0.393291 54.9886 0.669434V11.096C54.9886 12.2006 54.0932 13.096 52.9886 13.096H3.05078C1.39393 13.096 0.0507812 11.7528 0.0507812 10.096V3.16944Z" fill="#0769C2"/>
<path d="M0.0507812 47.8757V9.09609C0.0507812 11.3052 1.84165 13.0961 4.05078 13.0961H56.2203C57.3248 13.0961 58.2203 13.9915 58.2203 15.0961V29.1043C58.2203 29.1871 58.1531 29.2543 58.0703 29.2543H44.0621C42.9575 29.2543 42.0621 30.1497 42.0621 31.2543V40.1808C42.0621 41.2854 42.9575 42.1808 44.0621 42.1808H58.0703C58.1531 42.1808 58.2203 42.248 58.2203 42.3308V49.8758C58.2203 50.9803 57.3248 51.8758 56.2203 51.8758H4.05078C1.84164 51.8758 0.0507812 50.0849 0.0507812 47.8757Z" fill="#FFD200"/>
<path d="M38.8306 31.2544C38.8306 30.1498 39.726 29.2544 40.8306 29.2544H58.0704C58.1532 29.2544 58.2204 29.3216 58.2204 29.4044V42.0309C58.2204 42.1138 58.1532 42.1809 58.0704 42.1809H40.8306C39.726 42.1809 38.8306 41.2855 38.8306 40.1809V31.2544Z" fill="#0769C2"/>
<rect x="6.51416" y="19.5591" width="19.3898" height="3.23164" rx="1.61582" fill="#0769C2"/>
</svg>
