<svg width="73" height="61" viewBox="0 0 73 61" fill="none" xmlns="http://www.w3.org/2000/svg">
<path d="M36.5211 60.7233V8.90936C36.5211 8.90936 32.5354 0.937988 18.5855 0.937988C4.63559 0.937988 0.649902 8.90936 0.649902 8.90936V60.7233C0.649902 60.7233 4.63559 52.7519 18.5855 52.7519C32.5354 52.7519 36.5211 60.7233 36.5211 60.7233Z" fill="#FFD200"/>
<mask id="mask0_29_1060" style="mask-type:alpha" maskUnits="userSpaceOnUse" x="0" y="0" width="37" height="61">
<path d="M36.5211 60.7233V8.90936C36.5211 8.90936 32.5354 0.937988 18.5855 0.937988C4.63559 0.937988 0.649902 8.90936 0.649902 8.90936V60.7233C0.649902 60.7233 4.63559 52.7519 18.5855 52.7519C32.5354 52.7519 36.5211 60.7233 36.5211 60.7233Z" fill="#FFD200"/>
</mask>
<g mask="url(#mask0_29_1060)">
<path d="M8.62061 1.08799C8.62061 1.00514 8.68776 0.937988 8.77061 0.937988H20.4277C20.5105 0.937988 20.5777 1.00515 20.5777 1.08799V20.2629C20.5777 20.4856 20.3084 20.5971 20.1509 20.4396L14.7759 15.0647C14.6783 14.967 14.52 14.967 14.4224 15.0647L9.04738 20.4396C8.88989 20.5971 8.62061 20.4856 8.62061 20.2629V1.08799Z" fill="#0769C2"/>
</g>
<path d="M40.5066 60.7233V8.90936C40.5066 8.90936 44.0494 0.937988 56.4493 0.937988C68.8493 0.937988 72.3921 8.90936 72.3921 8.90936V60.7233C72.3921 60.7233 68.8493 52.7519 56.4493 52.7519C44.0494 52.7519 40.5066 60.7233 40.5066 60.7233Z" fill="#0769C2"/>
</svg>
