<svg width="60" height="55" viewBox="0 0 60 55" fill="none" xmlns="http://www.w3.org/2000/svg">
<path d="M10.8968 1.59766C8.76593 2.16863 6.82288 3.29045 5.26296 4.85036C3.70305 6.41028 2.58123 8.35333 2.01026 10.4842" stroke="#0769C2" stroke-width="3" stroke-linecap="round"/>
<path d="M48.821 1.59766C50.9518 2.16863 52.8949 3.29045 54.4548 4.85036C56.0147 6.41028 57.1365 8.35333 57.7075 10.4842" stroke="#0769C2" stroke-width="3" stroke-linecap="round"/>
<path d="M54.9936 29.446C54.9936 43.3277 43.7403 54.581 29.8586 54.581C15.9769 54.581 4.72363 43.3277 4.72363 29.446C4.72363 15.5643 15.9769 4.31104 29.8586 4.31104C43.7403 4.31104 54.9936 15.5643 54.9936 29.446Z" fill="#FFD200"/>
<path d="M29.0508 20.6494V32.9669C29.0508 33.105 29.1627 33.2169 29.3008 33.2169H38.4764" stroke="#0769C2" stroke-width="2" stroke-linecap="round"/>
</svg>
