<svg width="47" height="61" viewBox="0 0 47 61" fill="none" xmlns="http://www.w3.org/2000/svg">
<path d="M44.0945 45.9112L23.9385 60.3084C23.5908 60.5568 23.1237 60.5568 22.776 60.3084L2.61999 45.9112C1.04322 44.785 0.107422 42.9665 0.107422 41.0288V21.0167C0.107422 20.9339 0.174581 20.8667 0.257423 20.8667H46.4571C46.54 20.8667 46.6071 20.9339 46.6071 21.0167V41.0288C46.6071 42.9665 45.6713 44.785 44.0945 45.9112Z" fill="#0769C2"/>
<path d="M26.9025 2.45739L46.001 10.6425C46.3687 10.8 46.6071 11.1616 46.6071 11.5616V17.395C46.6071 17.4779 46.5399 17.545 46.4571 17.545H0.257422C0.174579 17.545 0.107422 17.4779 0.107422 17.395V11.5616C0.107422 11.1616 0.345818 10.8 0.713502 10.6425L19.812 2.45739C22.0759 1.48713 24.6386 1.48713 26.9025 2.45739Z" fill="#FFD200"/>
</svg>
