<svg width="89" height="80" viewBox="0 0 89 80" fill="none" xmlns="http://www.w3.org/2000/svg">
<path d="M0.912 64.8H6.432C7.68 64.8 8.77867 65.0293 9.728 65.488C10.688 65.936 11.4293 66.5813 11.952 67.424C12.4853 68.2667 12.752 69.2587 12.752 70.4C12.752 71.5413 12.4853 72.5333 11.952 73.376C11.4293 74.2187 10.688 74.8693 9.728 75.328C8.77867 75.776 7.68 76 6.432 76H0.912V64.8ZM6.272 73.056C7.08267 73.056 7.728 72.8267 8.208 72.368C8.69867 71.8987 8.944 71.2427 8.944 70.4C8.944 69.5573 8.69867 68.9067 8.208 68.448C7.728 67.9787 7.08267 67.744 6.272 67.744H4.688V73.056H6.272ZM23.3308 71.616C23.3308 71.6693 23.3148 71.952 23.2828 72.464H17.2028C17.3308 72.7947 17.5441 73.0507 17.8428 73.232C18.1414 73.4027 18.5148 73.488 18.9628 73.488C19.3468 73.488 19.6668 73.44 19.9228 73.344C20.1894 73.248 20.4774 73.0827 20.7868 72.848L22.6748 74.752C21.8214 75.6907 20.5468 76.16 18.8508 76.16C17.7948 76.16 16.8668 75.968 16.0668 75.584C15.2668 75.1893 14.6481 74.6453 14.2108 73.952C13.7734 73.2587 13.5548 72.48 13.5548 71.616C13.5548 70.7413 13.7681 69.9627 14.1948 69.28C14.6321 68.5867 15.2241 68.048 15.9708 67.664C16.7281 67.28 17.5761 67.088 18.5148 67.088C19.4001 67.088 20.2054 67.264 20.9308 67.616C21.6668 67.968 22.2481 68.4853 22.6748 69.168C23.1121 69.8507 23.3308 70.6667 23.3308 71.616ZM18.5468 69.552C18.1734 69.552 17.8641 69.6533 17.6188 69.856C17.3734 70.0587 17.2134 70.3467 17.1388 70.72H19.9548C19.8801 70.3573 19.7201 70.0747 19.4748 69.872C19.2294 69.6587 18.9201 69.552 18.5468 69.552ZM30.5519 67.088C31.6292 67.088 32.4932 67.4133 33.1439 68.064C33.8052 68.7147 34.1359 69.696 34.1359 71.008V76H30.5199V71.632C30.5199 70.6293 30.1625 70.128 29.4479 70.128C29.0425 70.128 28.7119 70.272 28.4559 70.56C28.2105 70.8373 28.0879 71.28 28.0879 71.888V76H24.4719V67.248H27.9119V68.112C28.2532 67.7707 28.6479 67.5147 29.0959 67.344C29.5439 67.1733 30.0292 67.088 30.5519 67.088ZM42.1543 75.696C41.6103 76.0053 40.8689 76.16 39.9303 76.16C38.7036 76.16 37.7596 75.8667 37.0983 75.28C36.4369 74.6827 36.1063 73.792 36.1063 72.608V70.368H34.9062V67.728H36.1063V65.28H39.7223V67.728H41.5143V70.368H39.7223V72.576C39.7223 72.8427 39.7916 73.0507 39.9303 73.2C40.0689 73.3493 40.2503 73.424 40.4743 73.424C40.7836 73.424 41.0556 73.344 41.2903 73.184L42.1543 75.696ZM46.4896 76.16C45.743 76.16 45.007 76.08 44.2816 75.92C43.5563 75.76 42.9696 75.552 42.5216 75.296L43.5136 72.912C43.919 73.1573 44.399 73.3493 44.9536 73.488C45.5083 73.6267 46.047 73.696 46.5696 73.696C46.9856 73.696 47.2736 73.664 47.4336 73.6C47.6043 73.5253 47.6896 73.4187 47.6896 73.28C47.6896 73.1413 47.583 73.0453 47.3696 72.992C47.167 72.9387 46.831 72.8853 46.3616 72.832C45.647 72.7467 45.039 72.64 44.5376 72.512C44.0363 72.3733 43.5936 72.112 43.2096 71.728C42.8363 71.344 42.6496 70.7947 42.6496 70.08C42.6496 69.5147 42.8203 69.008 43.1616 68.56C43.503 68.112 44.0096 67.7547 44.6816 67.488C45.3643 67.2213 46.1803 67.088 47.1296 67.088C47.791 67.088 48.4363 67.152 49.0656 67.28C49.7056 67.3973 50.2496 67.5733 50.6976 67.808L49.7056 70.192C48.9376 69.7653 48.095 69.552 47.1776 69.552C46.3883 69.552 45.9936 69.6907 45.9936 69.968C45.9936 70.1067 46.1003 70.208 46.3136 70.272C46.527 70.3253 46.863 70.3787 47.3216 70.432C48.0363 70.5173 48.639 70.6293 49.1296 70.768C49.631 70.9067 50.0683 71.168 50.4416 71.552C50.8256 71.936 51.0176 72.4853 51.0176 73.2C51.0176 73.744 50.847 74.24 50.5056 74.688C50.1643 75.136 49.6523 75.4933 48.9696 75.76C48.287 76.0267 47.4603 76.16 46.4896 76.16ZM63.6965 67.088C64.7525 67.088 65.5952 67.4133 66.2245 68.064C66.8645 68.7147 67.1845 69.696 67.1845 71.008V76H63.5685V71.632C63.5685 70.6293 63.2432 70.128 62.5925 70.128C62.2512 70.128 61.9738 70.256 61.7605 70.512C61.5578 70.768 61.4565 71.1733 61.4565 71.728V76H57.8405V71.632C57.8405 70.6293 57.5152 70.128 56.8645 70.128C56.5232 70.128 56.2458 70.256 56.0325 70.512C55.8298 70.768 55.7285 71.1733 55.7285 71.728V76H52.1125V67.248H55.5525V68.064C56.2032 67.4133 57.0298 67.088 58.0325 67.088C58.6192 67.088 59.1472 67.2 59.6165 67.424C60.0858 67.6373 60.4698 67.968 60.7685 68.416C61.1205 67.9893 61.5472 67.664 62.0485 67.44C62.5498 67.2053 63.0992 67.088 63.6965 67.088ZM68.7531 67.248H72.3691V76H68.7531V67.248ZM70.5611 66.544C69.9105 66.544 69.3825 66.3733 68.9771 66.032C68.5825 65.68 68.3851 65.2373 68.3851 64.704C68.3851 64.1707 68.5825 63.7333 68.9771 63.392C69.3825 63.04 69.9105 62.864 70.5611 62.864C71.2225 62.864 71.7505 63.0293 72.1451 63.36C72.5398 63.6907 72.7371 64.1173 72.7371 64.64C72.7371 65.1947 72.5398 65.6533 72.1451 66.016C71.7505 66.368 71.2225 66.544 70.5611 66.544ZM73.9719 64.128H77.5879V76H73.9719V64.128ZM88.5026 71.616C88.5026 71.6693 88.4866 71.952 88.4546 72.464H82.3746C82.5026 72.7947 82.716 73.0507 83.0146 73.232C83.3133 73.4027 83.6866 73.488 84.1346 73.488C84.5186 73.488 84.8386 73.44 85.0946 73.344C85.3613 73.248 85.6493 73.0827 85.9586 72.848L87.8466 74.752C86.9933 75.6907 85.7186 76.16 84.0226 76.16C82.9666 76.16 82.0386 75.968 81.2386 75.584C80.4386 75.1893 79.82 74.6453 79.3826 73.952C78.9453 73.2587 78.7266 72.48 78.7266 71.616C78.7266 70.7413 78.94 69.9627 79.3666 69.28C79.804 68.5867 80.396 68.048 81.1426 67.664C81.9 67.28 82.748 67.088 83.6866 67.088C84.572 67.088 85.3773 67.264 86.1026 67.616C86.8386 67.968 87.42 68.4853 87.8466 69.168C88.284 69.8507 88.5026 70.6667 88.5026 71.616ZM83.7186 69.552C83.3453 69.552 83.036 69.6533 82.7906 69.856C82.5453 70.0587 82.3853 70.3467 82.3106 70.72H85.1266C85.052 70.3573 84.892 70.0747 84.6466 69.872C84.4013 69.6587 84.092 69.552 83.7186 69.552Z" fill="black"/>
<g clip-path="url(#clip0_27_732)">
<path fill-rule="evenodd" clip-rule="evenodd" d="M18.9995 0H41.4784C56 0 67.7894 11.8072 67.7894 26.3508C67.7894 40.8944 56 52.7016 41.4784 52.7016H18.9995V50.0917C18.9995 40.6918 26.6082 33.072 35.9935 33.072H41.4784C45.1824 33.072 48.1894 30.0604 48.1894 26.3508C48.1894 22.6412 45.1824 19.6296 41.4784 19.6296H35.9935C26.6082 19.6296 18.9995 12.0098 18.9995 2.60996V0Z" fill="#0769C2"/>
<path d="M42.5116 36.3619C48.0323 36.3619 52.5076 31.8798 52.5076 26.3508C52.5076 20.8218 48.0323 16.3397 42.5116 16.3397C36.991 16.3397 32.5156 20.8218 32.5156 26.3508C32.5156 31.8798 36.991 36.3619 42.5116 36.3619Z" fill="#FFD200"/>
</g>
<defs>
<clipPath id="clip0_27_732">
<rect width="49" height="53" fill="white" transform="translate(19)"/>
</clipPath>
</defs>
</svg>
